<svg width="22" height="22" viewBox="0 0 22 22" fill="none" xmlns="http://www.w3.org/2000/svg">
<path d="M14.9967 12.8333C15.07 12.2283 15.125 11.6233 15.125 10.9999C15.125 10.3766 15.07 9.77159 14.9967 9.16659H18.095C18.2417 9.75325 18.3333 10.3674 18.3333 10.9999C18.3333 11.6324 18.2417 12.2466 18.095 12.8333M13.3742 17.9299C13.9242 16.9124 14.3458 15.8124 14.6392 14.6666H17.3433C16.4552 16.1958 15.0463 17.3542 13.3742 17.9299ZM13.145 12.8333H8.85499C8.76333 12.2283 8.70833 11.6233 8.70833 10.9999C8.70833 10.3766 8.76333 9.76242 8.85499 9.16659H13.145C13.2275 9.76242 13.2917 10.3766 13.2917 10.9999C13.2917 11.6233 13.2275 12.2283 13.145 12.8333ZM11 18.2966C10.2392 17.1966 9.625 15.9774 9.24916 14.6666H12.7508C12.375 15.9774 11.7608 17.1966 11 18.2966ZM7.33333 7.33325H4.65666C5.53542 5.7997 6.94343 4.63939 8.61666 4.06992C8.06666 5.08742 7.65416 6.18742 7.33333 7.33325ZM4.65666 14.6666H7.33333C7.65416 15.8124 8.06666 16.9124 8.61666 17.9299C6.94674 17.3545 5.54059 16.1958 4.65666 14.6666ZM3.905 12.8333C3.75833 12.2466 3.66666 11.6324 3.66666 10.9999C3.66666 10.3674 3.75833 9.75325 3.905 9.16659H7.00333C6.93 9.77159 6.875 10.3766 6.875 10.9999C6.875 11.6233 6.93 12.2283 7.00333 12.8333M11 3.69409C11.7608 4.79409 12.375 6.02242 12.7508 7.33325H9.24916C9.625 6.02242 10.2392 4.79409 11 3.69409ZM17.3433 7.33325H14.6392C14.3518 6.19806 13.927 5.10218 13.3742 4.06992C15.0608 4.64742 16.4633 5.81159 17.3433 7.33325ZM11 1.83325C5.93083 1.83325 1.83333 5.95825 1.83333 10.9999C1.83333 13.4311 2.7991 15.7626 4.51818 17.4817C5.36939 18.3329 6.37991 19.0081 7.49206 19.4688C8.60421 19.9295 9.79621 20.1666 11 20.1666C13.4311 20.1666 15.7627 19.2008 17.4818 17.4817C19.2009 15.7626 20.1667 13.4311 20.1667 10.9999C20.1667 9.79613 19.9296 8.60414 19.4689 7.49199C19.0082 6.37984 18.333 5.36931 17.4818 4.51811C16.6306 3.6669 15.6201 2.99169 14.5079 2.53102C13.3958 2.07035 12.2038 1.83325 11 1.83325Z" fill="white"/>
</svg>
