<svg width="16" height="19" viewBox="0 0 16 19" fill="none" xmlns="http://www.w3.org/2000/svg">
<path d="M8.82241 0.189453C9.72236 0.192165 10.1791 0.197588 10.5735 0.210242L10.7287 0.216569C10.9079 0.2238 11.0847 0.232839 11.2983 0.243686C12.1494 0.28888 12.7302 0.440731 13.2398 0.663989C13.7678 0.893574 14.2125 1.20451 14.6573 1.70616C15.0641 2.15801 15.3788 2.70457 15.5797 3.30783C15.7773 3.8836 15.9116 4.53982 15.9516 5.50245C15.9612 5.74288 15.9692 5.94264 15.9756 6.14601L15.9804 6.32136C15.9924 6.76607 15.9972 7.28218 15.9988 8.29905L15.9996 8.97334V10.1574C16.0016 10.8167 15.9955 11.476 15.9812 12.1351L15.9764 12.3105C15.97 12.5138 15.962 12.7136 15.9524 12.954C15.9124 13.9166 15.7765 14.572 15.5797 15.1486C15.3794 15.7522 15.0646 16.2989 14.6573 16.7503C14.2573 17.2098 13.7736 17.5654 13.2398 17.7925C12.7302 18.0157 12.1494 18.1676 11.2983 18.2128C11.1085 18.2229 10.9186 18.2319 10.7287 18.2399L10.5735 18.2453C10.1791 18.258 9.72236 18.2643 8.82241 18.2661L8.22564 18.267H7.17849C6.59473 18.2693 6.01097 18.2624 5.42738 18.2462L5.27219 18.2408C5.08229 18.2327 4.89243 18.2233 4.70262 18.2128C3.85146 18.1676 3.27069 18.0157 2.76032 17.7925C2.22648 17.5659 1.74295 17.2102 1.34359 16.7503C0.93645 16.2986 0.621409 15.752 0.42044 15.1486C0.22285 14.5729 0.088457 13.9166 0.0484591 12.954C0.0395466 12.7395 0.0315469 12.525 0.0244603 12.3105L0.0204606 12.1351C0.00571902 11.476 -0.000948019 10.8167 0.000461577 10.1574V8.29905C-0.00177108 7.63976 0.00409591 6.98047 0.0180607 6.32136L0.0236604 6.14601C0.0300601 5.94264 0.0380597 5.74288 0.0476592 5.50245C0.0876571 4.53982 0.22205 3.88451 0.41964 3.30783C0.620521 2.70396 0.93619 2.15722 1.34439 1.70616C1.74365 1.24652 2.22686 0.890851 2.76032 0.663989C3.27069 0.440731 3.85066 0.28888 4.70262 0.243686C4.91541 0.232839 5.093 0.2238 5.27219 0.216569L5.42738 0.211146C6.01071 0.195087 6.5942 0.188156 7.17769 0.190357L8.82241 0.189453ZM8.00005 4.70884C6.93924 4.70884 5.92188 5.18499 5.17177 6.03254C4.42166 6.88009 4.00026 8.02962 4.00026 9.22823C4.00026 10.4269 4.42166 11.5764 5.17177 12.4239C5.92188 13.2715 6.93924 13.7476 8.00005 13.7476C9.06086 13.7476 10.0782 13.2715 10.8283 12.4239C11.5784 11.5764 11.9998 10.4269 11.9998 9.22823C11.9998 8.02962 11.5784 6.88009 10.8283 6.03254C10.0782 5.18499 9.06086 4.70884 8.00005 4.70884ZM8.00005 6.5166C8.31521 6.51654 8.62729 6.58662 8.91848 6.72284C9.20966 6.85906 9.47425 7.05874 9.69714 7.3105C9.92002 7.56226 10.0968 7.86115 10.2175 8.19012C10.3381 8.51909 10.4003 8.87169 10.4003 9.22778C10.4004 9.58388 10.3384 9.9365 10.2178 10.2655C10.0972 10.5945 9.92052 10.8935 9.6977 11.1453C9.47489 11.3972 9.21036 11.597 8.91921 11.7333C8.62807 11.8696 8.31601 11.9398 8.00085 11.9399C7.36437 11.9399 6.75395 11.6542 6.30388 11.1456C5.85382 10.6371 5.60098 9.9474 5.60098 9.22823C5.60098 8.50906 5.85382 7.81935 6.30388 7.31082C6.75395 6.80229 7.36437 6.5166 8.00085 6.5166M12.2006 3.35303C11.9354 3.35303 11.6811 3.47206 11.4936 3.68395C11.306 3.89584 11.2007 4.18322 11.2007 4.48287C11.2007 4.78253 11.306 5.06991 11.4936 5.2818C11.6811 5.49368 11.9354 5.61272 12.2006 5.61272C12.4658 5.61272 12.7202 5.49368 12.9077 5.2818C13.0952 5.06991 13.2006 4.78253 13.2006 4.48287C13.2006 4.18322 13.0952 3.89584 12.9077 3.68395C12.7202 3.47206 12.4658 3.35303 12.2006 3.35303Z" fill="white"/>
</svg>
