<svg width="16" height="19" viewBox="0 0 16 19" fill="none" xmlns="http://www.w3.org/2000/svg">
<path d="M14.2222 0C14.6937 0 15.1459 0.211626 15.4793 0.588324C15.8127 0.965022 16 1.47593 16 2.00866V16.0693C16 16.6021 15.8127 17.113 15.4793 17.4897C15.1459 17.8664 14.6937 18.078 14.2222 18.078H1.77778C1.30628 18.078 0.854097 17.8664 0.520699 17.4897C0.187301 17.113 0 16.6021 0 16.0693V2.00866C0 1.47593 0.187301 0.965022 0.520699 0.588324C0.854097 0.211626 1.30628 0 1.77778 0H14.2222ZM13.7778 15.5672V10.2442C13.7778 9.37584 13.4725 8.54305 12.929 7.92904C12.3856 7.31502 11.6485 6.97007 10.88 6.97007C10.1244 6.97007 9.24444 7.49232 8.81778 8.2757V7.16089H6.33778V15.5672H8.81778V10.6158C8.81778 9.84246 9.36889 9.20973 10.0533 9.20973C10.3834 9.20973 10.6999 9.35787 10.9333 9.62156C11.1667 9.88524 11.2978 10.2429 11.2978 10.6158V15.5672H13.7778ZM3.44889 5.58409C3.84495 5.58409 4.22478 5.40632 4.50484 5.0899C4.78489 4.77347 4.94222 4.3443 4.94222 3.89681C4.94222 2.96278 4.27556 2.19949 3.44889 2.19949C3.05047 2.19949 2.66838 2.37831 2.38666 2.69662C2.10494 3.01493 1.94667 3.44665 1.94667 3.89681C1.94667 4.83084 2.62222 5.58409 3.44889 5.58409ZM4.68444 15.5672V7.16089H2.22222V15.5672H4.68444Z" fill="white"/>
</svg>
