<svg width="22" height="22" viewBox="0 0 22 22" fill="none" xmlns="http://www.w3.org/2000/svg">
<path d="M11 10.5416C10.3922 10.5416 9.80933 10.3001 9.37956 9.87037C8.94979 9.4406 8.70834 8.85771 8.70834 8.24992C8.70834 7.64213 8.94979 7.05924 9.37956 6.62947C9.80933 6.19969 10.3922 5.95825 11 5.95825C11.6078 5.95825 12.1907 6.19969 12.6205 6.62947C13.0502 7.05924 13.2917 7.64213 13.2917 8.24992C13.2917 8.55086 13.2324 8.84886 13.1172 9.1269C13.0021 9.40494 12.8333 9.65757 12.6205 9.87037C12.4077 10.0832 12.155 10.252 11.877 10.3671C11.599 10.4823 11.301 10.5416 11 10.5416ZM11 1.83325C9.2982 1.83325 7.6661 2.50929 6.46274 3.71265C5.25938 4.91601 4.58334 6.54811 4.58334 8.24992C4.58334 13.0624 11 20.1666 11 20.1666C11 20.1666 17.4167 13.0624 17.4167 8.24992C17.4167 6.54811 16.7406 4.91601 15.5373 3.71265C14.3339 2.50929 12.7018 1.83325 11 1.83325Z" fill="white"/>
</svg>
