<svg width="16" height="19" viewBox="0 0 16 19" fill="none" xmlns="http://www.w3.org/2000/svg">
<path d="M16 2.31627C15.4111 2.68847 14.7763 2.93305 14.1185 3.05003C14.7916 2.48642 15.3117 1.59316 15.5564 0.51911C14.9216 1.05082 14.218 1.42301 13.4761 1.63569C12.8719 0.721159 12.0229 0.189453 11.0593 0.189453C9.26195 0.189453 7.7935 2.2312 7.7935 4.75149C7.7935 5.11304 7.82409 5.46397 7.87763 5.79363C5.15488 5.60221 2.7304 3.78378 1.11663 1.02955C0.833652 1.6995 0.67304 2.48642 0.67304 3.31588C0.67304 4.90036 1.24665 6.30406 2.13384 7.10162C1.59082 7.10162 1.08604 6.88894 0.642448 6.56992V6.60182C0.642448 8.81371 1.77438 10.664 3.27342 11.0788C2.79223 11.2627 2.28684 11.2882 1.79732 11.1532C2.00505 12.0598 2.41188 12.853 2.96062 13.4214C3.50937 13.9898 4.17243 14.3048 4.8566 14.3222C3.69688 15.5988 2.25928 16.2888 0.780115 16.2789C0.520077 16.2789 0.260038 16.2576 0 16.2151C1.45316 17.5124 3.18164 18.2674 5.03251 18.2674C11.0593 18.2674 14.3709 11.3127 14.3709 5.28319C14.3709 5.08114 14.3709 4.88973 14.3633 4.68768C15.0057 4.04963 15.5564 3.24144 16 2.31627Z" fill="white"/>
</svg>
