<svg width="46" height="46" viewBox="0 0 46 46" fill="none" xmlns="http://www.w3.org/2000/svg">
<path d="M0.978224 34.9332L15.0577 20.5099C15.0577 20.5099 22.3793 14.4508 29.9844 19.9327C29.9844 19.9327 34.6342 23.9695 35.4775 24.8373C35.4775 24.8373 31.0424 24.4014 27.466 27.9788L10.5498 44.1652C10.5498 44.1652 7.10376 47.3892 2.80285 43.3013C2.80668 43.3013 -2.01171 38.4517 0.978224 34.9332Z" fill="#FFCC00"/>
<path d="M25.1967 33.9278C25.1967 33.9278 32.5757 24.2481 38.0112 27.2208L44.7002 34.6503C44.7002 34.6503 46.2757 36.3625 45.9575 39.2016C45.7275 41.2828 44.3629 43.6232 39.7707 45.139C39.7707 45.139 36.9916 46.1521 34.9139 43.957L25.1967 33.9278Z" fill="#0038FF"/>
<path d="M23.0847 15.5817C27.2849 15.5817 30.6898 12.0936 30.6898 7.79086C30.6898 3.48809 27.2849 0 23.0847 0C18.8844 0 15.4795 3.48809 15.4795 7.79086C15.4795 12.0936 18.8844 15.5817 23.0847 15.5817Z" fill="#0038FF"/>
<path opacity="0.26" d="M15.0578 20.5099C15.0578 20.5099 22.3793 14.4508 29.9845 19.9327C29.9845 19.9327 34.6342 23.9695 35.4775 24.8373C35.4775 24.8373 31.0424 24.4014 27.466 27.9788L22.0496 33.1622L8.62561 27.1031L15.0578 20.5099Z" fill="#080806"/>
</svg>
