<svg width="46" height="46" viewBox="0 0 46 46" fill="none" xmlns="http://www.w3.org/2000/svg">
<rect width="46" height="46" rx="5" fill="white"/>
<path fill-rule="evenodd" clip-rule="evenodd" d="M17.6667 16.3333C17.6667 14.9188 18.2286 13.5623 19.2288 12.5621C20.229 11.5619 21.5855 11 23 11C24.4145 11 25.771 11.5619 26.7712 12.5621C27.7714 13.5623 28.3333 14.9188 28.3333 16.3333C28.3333 17.7478 27.7714 19.1044 26.7712 20.1046C25.771 21.1048 24.4145 21.6667 23 21.6667C21.5855 21.6667 20.229 21.1048 19.2288 20.1046C18.2286 19.1044 17.6667 17.7478 17.6667 16.3333ZM17.6667 24.3333C15.8986 24.3333 14.2029 25.0357 12.9526 26.286C11.7024 27.5362 11 29.2319 11 31C11 32.0609 11.4214 33.0783 12.1716 33.8284C12.9217 34.5786 13.9391 35 15 35H31C32.0609 35 33.0783 34.5786 33.8284 33.8284C34.5786 33.0783 35 32.0609 35 31C35 29.2319 34.2976 27.5362 33.0474 26.286C31.7971 25.0357 30.1014 24.3333 28.3333 24.3333H17.6667Z" fill="black"/>
</svg>
