<svg width="19" height="19" viewBox="0 0 19 19" fill="none" xmlns="http://www.w3.org/2000/svg">
<path d="M2.00292 11.693C1.83429 12.7965 2.58717 13.5621 3.50867 13.9437C7.04187 15.4083 11.9581 15.4083 15.4913 13.9437C16.4128 13.5621 17.1657 12.7957 16.9971 11.693C16.8942 11.0145 16.382 10.45 16.0028 9.89825C15.5064 9.16675 15.4573 8.36954 15.4565 7.52087C15.4573 4.24179 12.791 1.58337 9.5 1.58337C6.20904 1.58337 3.54271 4.24179 3.54271 7.52087C3.54271 8.36954 3.49362 9.16754 2.99646 9.89825C2.61804 10.45 2.10662 11.0145 2.00292 11.693Z" stroke="black" stroke-width="1.5" stroke-linecap="round" stroke-linejoin="round"/>
<path d="M6.33333 15.0417C6.69592 16.4073 7.97683 17.4167 9.5 17.4167C11.024 17.4167 12.3033 16.4073 12.6667 15.0417" stroke="black" stroke-width="1.5" stroke-linecap="round" stroke-linejoin="round"/>
</svg>
